<svg width="109" height="31" viewBox="0 0 109 31" fill="none" xmlns="http://www.w3.org/2000/svg">
<path d="M65.9593 2.21851C65.3218 2.21851 64.7681 2.44864 64.3083 2.90639C63.8511 3.36161 63.6175 3.91547 63.6175 4.55024C63.6175 5.18502 63.8486 5.73635 64.3083 6.19409C64.7655 6.64931 65.3218 6.88198 65.9593 6.88198C66.5969 6.88198 67.1506 6.65184 67.6078 6.19409C68.065 5.73887 68.2987 5.18502 68.2987 4.55024C68.2987 3.91547 68.0675 3.36414 67.6078 2.90639C67.1531 2.45117 66.5969 2.21851 65.9593 2.21851Z" fill="#2C2C42"/>
<path d="M65.9593 8.30835C65.4183 8.30835 64.9586 8.48538 64.5928 8.83691C64.222 9.1935 64.034 9.65884 64.034 10.2228V22.4834C64.034 23.0271 64.2195 23.4874 64.5852 23.8516C64.951 24.2158 65.4132 24.4004 65.9593 24.4004C66.5257 24.4004 66.9956 24.2132 67.3538 23.844C67.7068 23.4798 67.8846 23.0221 67.8846 22.4834V10.2253C67.8846 9.66389 67.7043 9.20109 67.3462 8.8445C66.9906 8.48791 66.5232 8.30835 65.9593 8.30835Z" fill="#2C2C42"/>
<path d="M76.5463 22.5137V12.251H78.3853C78.9034 12.251 79.3378 12.0942 79.6731 11.7857C80.016 11.4695 80.1988 11.0548 80.1988 10.5844C80.1988 10.0786 80.0185 9.6436 79.6731 9.32748C79.3352 9.01894 78.9034 8.86214 78.3853 8.86214H76.5463V5.40247C76.5463 4.86126 76.3659 4.40604 76.0078 4.04945C75.6496 3.69539 75.1924 3.51331 74.6489 3.51331C74.1053 3.51331 73.6481 3.69286 73.2899 4.04945C72.9343 4.40604 72.7515 4.86126 72.7515 5.40247V8.85961H71.992C71.4738 8.85961 71.0395 9.01641 70.7016 9.32495C70.3587 9.64107 70.1759 10.0761 70.1759 10.5819C70.1759 11.0523 70.3562 11.4695 70.7016 11.7831C71.0369 12.0917 71.4713 12.2485 71.992 12.2485H72.7515V22.5112C72.7515 23.5531 73.5998 24.4003 74.6489 24.4003C75.6979 24.4029 76.5463 23.5556 76.5463 22.5137Z" fill="#2C2C42"/>
<path d="M90.232 11.7022C90.9102 11.7073 91.5224 11.2748 91.7103 10.6274C91.7992 10.3188 91.8399 9.93696 91.7916 9.46404C91.6367 7.93905 90.1685 8.10091 90.1685 8.10091C89.1754 8.10091 88.266 8.34369 87.3897 8.74075C86.8817 8.97089 86.4169 9.25413 85.9978 9.58796C85.7946 8.76857 85.1545 8.31082 84.1689 8.31082C83.5873 8.31082 83.1199 8.48279 82.7821 8.81915C82.4443 9.1555 82.2715 9.62084 82.2715 10.2V22.5162C82.2715 23.1181 82.4468 23.5885 82.7872 23.9173C83.125 24.241 83.5898 24.4054 84.1664 24.4054C84.7709 24.4054 85.2434 24.2334 85.5736 23.8895C85.8987 23.5531 86.0613 23.0903 86.0613 22.5162V14.4689C86.0613 13.6015 86.3915 12.9338 87.0747 12.4255C87.791 11.8894 88.7791 11.6365 89.9856 11.6971C90.0466 11.6997 90.1355 11.7022 90.232 11.7022Z" fill="#2C2C42"/>
<path d="M107.423 12.2156C106.707 10.9764 105.724 9.98759 104.497 9.27441C103.27 8.56123 101.883 8.19958 100.377 8.19958C98.8732 8.19958 97.4788 8.56123 96.2316 9.27441C94.9844 9.98759 93.9938 10.979 93.2877 12.2207C92.5815 13.4599 92.2234 14.8559 92.2234 16.3708C92.2234 17.8831 92.5561 19.2741 93.2089 20.5082C93.8668 21.75 94.7863 22.7388 95.9395 23.4469C97.0952 24.155 98.4008 24.5142 99.8207 24.5142C100.964 24.5142 102.043 24.2739 103.031 23.8035C103.626 23.5203 104.169 23.1662 104.659 22.7439C104.705 23.189 104.886 23.5708 105.2 23.8844C105.566 24.2486 106.029 24.4332 106.575 24.4332C107.121 24.4332 107.583 24.2486 107.949 23.8844C108.315 23.5203 108.5 23.06 108.5 22.5163V16.3708C108.503 14.8534 108.139 13.4548 107.423 12.2156ZM104.764 16.3683C104.764 17.2509 104.571 18.0551 104.19 18.7556C103.811 19.4511 103.283 20.0075 102.617 20.4071C101.954 20.8067 101.202 21.009 100.379 21.009C99.5565 21.009 98.8021 20.8067 98.1417 20.4071C97.4762 20.005 96.9403 19.4486 96.5542 18.7506C96.1655 18.05 95.9674 17.2483 95.9674 16.3657C95.9674 15.4831 96.1655 14.6764 96.5542 13.9657C96.9403 13.2601 97.4737 12.6987 98.1417 12.2991C98.8046 11.8995 99.5565 11.6972 100.379 11.6972C101.202 11.6972 101.954 11.8995 102.617 12.2991C103.28 12.6987 103.809 13.2576 104.187 13.9632C104.571 14.6764 104.764 15.4856 104.764 16.3683Z" fill="#2C2C42"/>
<path d="M58.4891 9.85102C57.4045 8.70285 55.9719 8.11865 54.2269 8.11865C53.1423 8.11865 52.1365 8.32856 51.2424 8.74584C50.5617 9.06197 49.599 9.8232 49.0707 10.3442L49.0199 10.3922C48.4915 9.87378 47.3714 9.06703 46.683 8.74837C45.7889 8.33362 44.7831 8.12118 43.6985 8.12118C41.9535 8.12118 40.5183 8.70285 39.4363 9.85355C38.3618 10.9941 37.8157 12.5849 37.8157 14.5853V22.4657C37.8157 23.0043 37.9935 23.4621 38.3466 23.8263C38.7047 24.1955 39.1747 24.3827 39.7411 24.3827C40.2872 24.3827 40.7495 24.198 41.1152 23.8339C41.481 23.4697 41.6664 23.0094 41.6664 22.4682V14.5802C41.6664 13.6015 41.9027 12.8656 42.3675 12.3876C42.8349 11.9071 43.4495 11.6744 44.2547 11.6744C45.0726 11.6744 45.7229 11.945 46.2461 12.5039C46.777 13.073 47.0361 13.7887 47.0361 14.6915V22.4606C47.0361 22.9993 47.2164 23.457 47.567 23.8212C47.9251 24.1904 48.3925 24.3776 48.9589 24.3776C48.9614 24.3776 48.964 24.3776 48.9665 24.3776C48.9691 24.3776 48.9716 24.3776 48.9741 24.3776C49.5406 24.3776 50.0105 24.1904 50.3661 23.8212C50.7191 23.457 50.8969 22.9993 50.8969 22.4606V14.6915C50.8969 13.7887 51.156 13.073 51.6869 12.5039C52.2076 11.945 52.8579 11.6744 53.6783 11.6744C54.4809 11.6744 55.0982 11.9071 55.5655 12.3876C56.0304 12.8656 56.2666 13.6041 56.2666 14.5802V22.4606C56.2666 23.0043 56.452 23.4646 56.8178 23.8263C57.1835 24.1904 57.6458 24.3751 58.1919 24.3751C58.7584 24.3751 59.2257 24.1879 59.5864 23.8187C59.9395 23.4545 60.1173 22.9968 60.1173 22.4581V14.5802C60.1097 12.5823 59.5636 10.9916 58.4891 9.85102Z" fill="#2C2C42"/>
<path d="M2.46345 10.7703L11.3155 1.95576C13.9343 -0.651919 18.199 -0.651919 20.8203 1.95576L29.6724 10.7677C30.9373 12.0273 31.6358 13.7093 31.6358 15.5C31.6358 17.2907 30.9398 18.9702 29.6724 20.2323L20.8203 29.0442C18.199 31.6519 13.9368 31.6519 11.3155 29.0442L2.46345 20.2323C1.19597 18.9727 0.5 17.2907 0.5 15.5C0.5 13.7093 1.19597 12.0298 2.46345 10.7703ZM26.7513 13.6789L17.8993 4.86442C17.4141 4.38133 16.7639 4.11576 16.0679 4.11576C15.3719 4.11576 14.7217 4.38133 14.2365 4.86442L5.3845 13.6789C4.89935 14.162 4.63265 14.8095 4.63265 15.5025C4.63265 16.1955 4.89935 16.843 5.3845 17.3261L14.2365 26.1381C14.7217 26.6212 15.3719 26.8868 16.0679 26.8868C16.7639 26.8868 17.4141 26.6212 17.8993 26.1381L26.7513 17.3261C27.2365 16.843 27.5032 16.1955 27.5032 15.5025C27.5032 14.8095 27.2365 14.162 26.7513 13.6789Z" fill="url(#paint0_linear_385_132255)"/>
<mask id="mask0_385_132255" style="mask-type:alpha" maskUnits="userSpaceOnUse" x="0" y="0" width="32" height="31">
<path d="M2.46345 10.7703L11.3155 1.95576C13.9343 -0.651919 18.199 -0.651919 20.8203 1.95576L29.6724 10.7677C30.9373 12.0273 31.6358 13.7093 31.6358 15.5C31.6358 17.2907 30.9398 18.9702 29.6724 20.2323L20.8203 29.0442C18.199 31.6519 13.9368 31.6519 11.3155 29.0442L2.46345 20.2323C1.19597 18.9727 0.5 17.2907 0.5 15.5C0.5 13.7093 1.19597 12.0298 2.46345 10.7703ZM26.7513 13.6789L17.8993 4.86442C17.4141 4.38133 16.7639 4.11576 16.0679 4.11576C15.3719 4.11576 14.7217 4.38133 14.2365 4.86442L5.3845 13.6789C4.89935 14.162 4.63265 14.8095 4.63265 15.5025C4.63265 16.1955 4.89935 16.843 5.3845 17.3261L14.2365 26.1381C14.7217 26.6212 15.3719 26.8868 16.0679 26.8868C16.7639 26.8868 17.4141 26.6212 17.8993 26.1381L26.7513 17.3261C27.2365 16.843 27.5032 16.1955 27.5032 15.5025C27.5032 14.8095 27.2365 14.162 26.7513 13.6789Z" fill="url(#paint1_linear_385_132255)"/>
</mask>
<g mask="url(#mask0_385_132255)">
<path d="M17.5945 26.3531L14.5363 29.3579C13.8225 30.099 12.6515 30.2001 11.8438 29.5602C11.8362 29.5552 11.8286 29.5476 11.821 29.5425C11.821 29.5425 10.5128 28.3715 10.0607 27.8505C9.82702 27.5824 8.63575 26.3987 7.53337 25.3085C6.55037 24.3373 6.81454 22.6933 8.05408 22.0761L8.16838 22.0205C8.94817 21.6335 9.88799 21.7853 10.5027 22.3973L14.041 25.9206C14.041 25.9206 14.7496 26.7705 15.8317 26.8312C16.9137 26.8919 17.5945 26.3531 17.5945 26.3531Z" fill="url(#paint2_linear_385_132255)"/>
<path d="M15.2604 4.26661L14.9427 4.36754L17.6402 1.64208C18.3489 0.903532 19.5147 0.802361 20.3149 1.43974C20.3225 1.4448 20.3301 1.45238 20.3377 1.45744C20.3377 1.45744 21.5849 2.68161 22.07 3.16723C22.3342 3.4328 23.5026 4.59121 24.5974 5.67627C25.5753 6.64245 25.3111 8.28141 24.0817 8.89603L23.97 8.95167C23.1953 9.33865 22.2605 9.18689 21.6357 8.60516L18.0847 5.14006C18.0847 5.14006 17.4294 4.21941 16.3575 4.1587C15.8945 4.13037 15.8573 4.11294 15.6204 4.17699L15.2604 4.26661Z" fill="url(#paint3_linear_385_132255)"/>
</g>
<defs>
<linearGradient id="paint0_linear_385_132255" x1="16.4465" y1="30.9948" x2="15.6938" y2="0.00710459" gradientUnits="userSpaceOnUse">
<stop offset="0.00534759" stop-color="#8D65F5"/>
<stop offset="0.307292" stop-color="#6665F5"/>
<stop offset="0.9997" stop-color="#01D0FA"/>
</linearGradient>
<linearGradient id="paint1_linear_385_132255" x1="16.067" y1="32.8394" x2="16.067" y2="1.83746" gradientUnits="userSpaceOnUse">
<stop stop-color="#8D65F5"/>
<stop offset="0.00828621" stop-color="#8A65F5"/>
<stop offset="0.0832" stop-color="#7665F5"/>
<stop offset="0.158" stop-color="#6A65F5"/>
<stop offset="0.2322" stop-color="#6665F5"/>
<stop offset="0.3772" stop-color="#4686F7"/>
<stop offset="0.547" stop-color="#28A6F8"/>
<stop offset="0.7111" stop-color="#13BDF9"/>
<stop offset="0.8653" stop-color="#05CBFA"/>
<stop offset="0.9997" stop-color="#01D0FA"/>
<stop offset="1" stop-color="#01D0FA"/>
</linearGradient>
<linearGradient id="paint2_linear_385_132255" x1="15.6994" y1="28.9779" x2="8.08772" y2="21.3228" gradientUnits="userSpaceOnUse">
<stop stop-color="#2C2864"/>
<stop offset="1" stop-color="#4C81F7" stop-opacity="0"/>
</linearGradient>
<linearGradient id="paint3_linear_385_132255" x1="16.2226" y1="1.55391" x2="23.7763" y2="9.15085" gradientUnits="userSpaceOnUse">
<stop stop-color="#005567"/>
<stop offset="1" stop-color="#09C8FA" stop-opacity="0"/>
</linearGradient>
</defs>
</svg>
